<svg xmlns="http://www.w3.org/2000/svg" width="1024" height="1024" viewBox="0 0 1024 1024">
  <defs>
    <linearGradient id="bg" x1="0" y1="0" x2="1" y2="1">
      <stop offset="0%" stop-color="#4ADE80"/>
      <stop offset="55%" stop-color="#16A34A"/>
      <stop offset="100%" stop-color="#064E3B"/>
    </linearGradient>
    <radialGradient id="glow" cx="0.5" cy="0.3" r="0.75">
      <stop offset="0%" stop-color="#A7F3D0" stop-opacity="0.55"/>
      <stop offset="60%" stop-color="#A7F3D0" stop-opacity="0"/>
    </radialGradient>
    <linearGradient id="cardA" x1="0" y1="0" x2="0" y2="1">
      <stop offset="0%" stop-color="#FFFFFF"/>
      <stop offset="100%" stop-color="#ECFDF5"/>
    </linearGradient>
    <linearGradient id="cardB" x1="0" y1="0" x2="0" y2="1">
      <stop offset="0%" stop-color="#F0FDF4"/>
      <stop offset="100%" stop-color="#D1FAE5"/>
    </linearGradient>
    <linearGradient id="cardC" x1="0" y1="0" x2="0" y2="1">
      <stop offset="0%" stop-color="#A7F3D0"/>
      <stop offset="100%" stop-color="#6EE7B7"/>
    </linearGradient>
    <linearGradient id="letter" x1="0" y1="0" x2="0" y2="1">
      <stop offset="0%" stop-color="#15803D"/>
      <stop offset="100%" stop-color="#064E3B"/>
    </linearGradient>
    <linearGradient id="spark" x1="0" y1="0" x2="0" y2="1">
      <stop offset="0%" stop-color="#FEF9C3"/>
      <stop offset="100%" stop-color="#FACC15"/>
    </linearGradient>
    <filter id="cardShadow" x="-20%" y="-20%" width="140%" height="140%">
      <feGaussianBlur in="SourceAlpha" stdDeviation="16"/>
      <feOffset dx="0" dy="14" result="o"/>
      <feComponentTransfer><feFuncA type="linear" slope="0.4"/></feComponentTransfer>
      <feMerge><feMergeNode/><feMergeNode in="SourceGraphic"/></feMerge>
    </filter>
    <filter id="sparkGlow" x="-50%" y="-50%" width="200%" height="200%">
      <feGaussianBlur stdDeviation="12" result="b"/>
      <feMerge><feMergeNode in="b"/><feMergeNode in="SourceGraphic"/></feMerge>
    </filter>
  </defs>

  <!-- background tile -->
  <rect width="1024" height="1024" rx="220" ry="220" fill="url(#bg)"/>
  <rect width="1024" height="1024" rx="220" ry="220" fill="url(#glow)"/>

  <!-- inner ring -->
  <rect x="40" y="40" width="944" height="944" rx="190" ry="190"
        fill="none" stroke="#FFFFFF" stroke-opacity="0.18" stroke-width="3"/>

  <!-- decorative dots -->
  <g fill="#ECFDF5" opacity="0.5">
    <circle cx="170" cy="220" r="6"/>
    <circle cx="860" cy="200" r="5"/>
    <circle cx="200" cy="820" r="7"/>
    <circle cx="840" cy="830" r="5"/>
    <circle cx="512" cy="120" r="4"/>
    <circle cx="120" cy="500" r="4"/>
    <circle cx="900" cy="520" r="5"/>
  </g>

  <!-- stacked flashcards -->
  <g filter="url(#cardShadow)">
    <!-- back card (rotated left) -->
    <g transform="translate(512 540) rotate(-14)">
      <rect x="-280" y="-360" width="560" height="720" rx="60" ry="60" fill="url(#cardC)"/>
    </g>
    <!-- middle card (rotated right) -->
    <g transform="translate(512 540) rotate(8)">
      <rect x="-280" y="-360" width="560" height="720" rx="60" ry="60" fill="url(#cardB)"/>
    </g>
    <!-- front card -->
    <g transform="translate(512 540)">
      <rect x="-280" y="-360" width="560" height="720" rx="60" ry="60" fill="url(#cardA)"/>
      <!-- top accent bar -->
      <rect x="-280" y="-360" width="560" height="70" rx="60" ry="60" fill="#22C55E"/>
      <rect x="-280" y="-310" width="560" height="20" fill="#22C55E"/>
      <!-- big A -->
      <text x="0" y="120" text-anchor="middle"
            font-family="-apple-system, BlinkMacSystemFont, 'Segoe UI', system-ui, sans-serif"
            font-size="540" font-weight="900" fill="url(#letter)" letter-spacing="-20">A</text>
      <!-- subtitle line -->
      <rect x="-150" y="220" width="300" height="22" rx="11" fill="#86EFAC"/>
      <rect x="-100" y="260" width="200" height="14" rx="7" fill="#BBF7D0"/>
    </g>
  </g>

  <!-- AI sparkle -->
  <g filter="url(#sparkGlow)" transform="translate(740 230)">
    <path d="M0,-90 L22,-22 L90,0 L22,22 L0,90 L-22,22 L-90,0 L-22,-22 Z"
          fill="url(#spark)"/>
    <circle cx="0" cy="0" r="14" fill="#FFFFFF" opacity="0.9"/>
  </g>
  <g filter="url(#sparkGlow)" transform="translate(820 360)">
    <path d="M0,-36 L9,-9 L36,0 L9,9 L0,36 L-9,9 L-36,0 L-9,-9 Z"
          fill="url(#spark)"/>
  </g>
  <g filter="url(#sparkGlow)" transform="translate(260 760)">
    <path d="M0,-28 L7,-7 L28,0 L7,7 L0,28 L-7,7 L-28,0 L-7,-7 Z"
          fill="url(#spark)"/>
  </g>
</svg>
